<?xml version="1.0" encoding="utf-8"?>
<!-- Generator: Adobe Illustrator 28.2.0, SVG Export Plug-In . SVG Version: 6.00 Build 0)  -->
<svg version="1.1" id="Capa_1" xmlns="http://www.w3.org/2000/svg" xmlns:xlink="http://www.w3.org/1999/xlink" x="0px" y="0px"
	 viewBox="0 0 200 200" style="enable-background:new 0 0 200 200;" xml:space="preserve">
<style type="text/css">
	.st0{fill:#5A6B56;}
	.st1{font-family:'FjallaOne-Regular';}
	.st2{font-size:28.343px;}
	.st3{letter-spacing:2;}
	.st4{fill:#7D9E47;}
	.st5{font-family:'Rubik-Medium';}
	.st6{font-size:9.2172px;}
	.st7{fill:none;stroke:#5A6B56;stroke-width:5;stroke-miterlimit:10;}
</style>
<text transform="matrix(1 0 0 1 16.96 176.875)" class="st0 st1 st2 st3">RURAL HOUSE</text>
<text transform="matrix(1 0 0 1 14.4321 190.4629)" class="st4 st5 st6 st3">la naturaleza es tu hogar</text>
<g>
	<line class="st7" x1="180.46" y1="144.94" x2="20.3" y2="144.94"/>
	<g>
		<g>
			<path class="st7" d="M155.15,144.43l-109.64,0.52L99.83,20.92L155.15,144.43z"/>
			<line class="st7" x1="90.48" y1="42.27" x2="109.39" y2="42.27"/>
			<line class="st7" x1="80.23" y1="65.66" x2="119.87" y2="65.66"/>
			<line class="st7" x1="60.4" y1="130.34" x2="139.71" y2="130.34"/>
			<rect x="82.86" y="85.77" class="st7" width="34.15" height="10.28"/>
			<rect x="82.86" y="96.05" class="st7" width="34.15" height="34.29"/>
			<line class="st7" x1="100.34" y1="96.05" x2="100.38" y2="130.34"/>
			<line class="st7" x1="82.86" y1="113.19" x2="117.01" y2="113.19"/>
			<line class="st7" x1="90.48" y1="76.13" x2="75.65" y2="76.13"/>
			<line class="st7" x1="124.42" y1="76.13" x2="109.6" y2="76.13"/>
		</g>
		<g>
			<g>
				<g>
					<path class="st7" d="M66.05,52.3c0,17.68-6.72,21.99-15.01,21.99c-8.29,0-15.01-4.3-15.01-21.99s6.72-42.05,15.01-42.05
						C59.33,10.25,66.05,34.62,66.05,52.3z"/>
					<line class="st7" x1="51.04" y1="28.11" x2="51.04" y2="132.42"/>
					<line class="st7" x1="42.99" y1="38.69" x2="51.04" y2="42.27"/>
					<line class="st7" x1="42.99" y1="53.63" x2="51.04" y2="57.2"/>
					<line class="st7" x1="59.09" y1="38.69" x2="51.04" y2="42.27"/>
					<line class="st7" x1="59.09" y1="53.63" x2="51.04" y2="57.2"/>
				</g>
				<g>
					<line class="st7" x1="35.24" y1="93.81" x2="35.24" y2="144.94"/>
					<path class="st7" d="M42.99,126.46c-2.26,1.02-4.92,1.39-7.75,1.39c-8.29,0-15.01-3.19-15.01-16.32
						c0-13.13,6.72-31.22,15.01-31.22c3.11,0,6,2.54,8.39,6.42"/>
					<line class="st7" x1="26.16" y1="110.38" x2="34.21" y2="113.96"/>
					<line class="st7" x1="44.08" y1="110.38" x2="36.03" y2="113.96"/>
				</g>
			</g>
			<g>
				<g>
					<path class="st7" d="M134.62,52.3c0,17.68,6.72,21.99,15.01,21.99c8.29,0,15.01-4.3,15.01-21.99s-6.72-42.05-15.01-42.05
						C141.34,10.25,134.62,34.62,134.62,52.3z"/>
					<line class="st7" x1="149.63" y1="28.11" x2="149.63" y2="132.42"/>
					<line class="st7" x1="157.68" y1="38.69" x2="149.63" y2="42.27"/>
					<line class="st7" x1="157.68" y1="53.63" x2="149.63" y2="57.2"/>
					<line class="st7" x1="141.58" y1="38.69" x2="149.63" y2="42.27"/>
					<line class="st7" x1="141.58" y1="53.63" x2="149.63" y2="57.2"/>
				</g>
				<g>
					<line class="st7" x1="165.43" y1="93.81" x2="165.43" y2="144.94"/>
					<path class="st7" d="M157.68,126.46c2.26,1.02,4.92,1.39,7.75,1.39c8.29,0,15.01-3.19,15.01-16.32
						c0-13.13-6.72-31.22-15.01-31.22c-3.11,0-6,2.54-8.39,6.42"/>
					<line class="st7" x1="174.51" y1="110.38" x2="166.46" y2="113.96"/>
					<line class="st7" x1="156.59" y1="110.38" x2="164.64" y2="113.96"/>
				</g>
			</g>
		</g>
	</g>
</g>
</svg>
