<?xml version="1.0" encoding="utf-8"?>
<!-- Generator: Adobe Illustrator 28.2.0, SVG Export Plug-In . SVG Version: 6.00 Build 0)  -->
<svg version="1.1" id="Capa_1" xmlns="http://www.w3.org/2000/svg" xmlns:xlink="http://www.w3.org/1999/xlink" x="0px" y="0px"
	 viewBox="0 0 200 200" style="enable-background:new 0 0 200 200;" xml:space="preserve">
<style type="text/css">
	.st0{fill:none;stroke:#5A6B56;stroke-width:5;stroke-miterlimit:10;}
</style>
<g>
	<line class="st0" x1="190" y1="176.41" x2="9.08" y2="176.41"/>
	<g>
		<g>
			<path class="st0" d="M161.41,175.82l-123.85,0.58L98.91,36.3L161.41,175.82z"/>
			<line class="st0" x1="88.35" y1="60.42" x2="109.72" y2="60.42"/>
			<line class="st0" x1="76.78" y1="86.84" x2="121.55" y2="86.84"/>
			<line class="st0" x1="54.37" y1="159.91" x2="143.96" y2="159.91"/>
			<rect x="79.74" y="109.56" class="st0" width="38.58" height="11.61"/>
			<rect x="79.74" y="121.17" class="st0" width="38.58" height="38.74"/>
			<line class="st0" x1="99.49" y1="121.17" x2="99.54" y2="159.91"/>
			<line class="st0" x1="79.74" y1="140.54" x2="118.32" y2="140.54"/>
			<line class="st0" x1="88.35" y1="98.67" x2="71.6" y2="98.67"/>
			<line class="st0" x1="126.7" y1="98.67" x2="109.95" y2="98.67"/>
		</g>
		<g>
			<g>
				<g>
					<path class="st0" d="M60.76,71.75c0,19.98-7.59,24.84-16.96,24.84c-9.36,0-16.96-4.86-16.96-24.84s7.59-47.51,16.96-47.51
						C53.17,24.25,60.76,51.78,60.76,71.75z"/>
					<line class="st0" x1="43.8" y1="44.43" x2="43.8" y2="162.26"/>
					<line class="st0" x1="34.71" y1="56.38" x2="43.8" y2="60.42"/>
					<line class="st0" x1="34.71" y1="73.25" x2="43.8" y2="77.29"/>
					<line class="st0" x1="52.89" y1="56.38" x2="43.8" y2="60.42"/>
					<line class="st0" x1="52.89" y1="73.25" x2="43.8" y2="77.29"/>
				</g>
				<g>
					<line class="st0" x1="25.96" y1="118.64" x2="25.96" y2="176.41"/>
					<path class="st0" d="M34.71,155.53c-2.56,1.15-5.55,1.57-8.76,1.57C16.59,157.11,9,153.5,9,138.67
						c0-14.83,7.59-35.27,16.96-35.27c3.51,0,6.77,2.87,9.48,7.25"/>
					<line class="st0" x1="15.7" y1="137.36" x2="24.79" y2="141.4"/>
					<line class="st0" x1="35.94" y1="137.36" x2="26.85" y2="141.4"/>
				</g>
			</g>
			<g>
				<g>
					<path class="st0" d="M138.22,71.75c0,19.98,7.59,24.84,16.96,24.84c9.36,0,16.96-4.86,16.96-24.84s-7.59-47.51-16.96-47.51
						C145.81,24.25,138.22,51.78,138.22,71.75z"/>
					<line class="st0" x1="155.17" y1="44.43" x2="155.17" y2="162.26"/>
					<line class="st0" x1="164.27" y1="56.38" x2="155.17" y2="60.42"/>
					<line class="st0" x1="164.27" y1="73.25" x2="155.17" y2="77.29"/>
					<line class="st0" x1="146.08" y1="56.38" x2="155.17" y2="60.42"/>
					<line class="st0" x1="146.08" y1="73.25" x2="155.17" y2="77.29"/>
				</g>
				<g>
					<line class="st0" x1="173.02" y1="118.64" x2="173.02" y2="176.41"/>
					<path class="st0" d="M164.27,155.53c2.56,1.15,5.55,1.57,8.76,1.57c9.36,0,16.96-3.61,16.96-18.44
						c0-14.83-7.59-35.27-16.96-35.27c-3.51,0-6.77,2.87-9.48,7.25"/>
					<line class="st0" x1="183.28" y1="137.36" x2="174.19" y2="141.4"/>
					<line class="st0" x1="163.04" y1="137.36" x2="172.13" y2="141.4"/>
				</g>
			</g>
		</g>
	</g>
</g>
</svg>
