<?xml version="1.0" encoding="utf-8"?>
<!-- Generator: Adobe Illustrator 28.3.0, SVG Export Plug-In . SVG Version: 6.00 Build 0)  -->
<svg version="1.1" id="Capa_1" xmlns="http://www.w3.org/2000/svg" xmlns:xlink="http://www.w3.org/1999/xlink" x="0px" y="0px"
	 viewBox="0 0 412 419" style="enable-background:new 0 0 412 419;" xml:space="preserve">
<style type="text/css">
	.st0{fill:none;stroke:#FCFBEA;stroke-width:7;stroke-miterlimit:10;}
</style>
<path class="st0" d="M352.77,368.05l-240.98,1.13c-9.15,0.04-15.32-9.34-11.65-17.72L220.42,76.79c2.23-5.1,9.45-5.13,11.72-0.05
	l126.45,282.27C360.48,363.24,357.4,368.02,352.77,368.05z"/>
<line class="st0" x1="203.2" y1="115.98" x2="249.64" y2="115.98"/>
<line class="st0" x1="177.81" y1="173.57" x2="275.65" y2="173.57"/>
<line class="st0" x1="128.89" y1="333.32" x2="324.57" y2="333.32"/>
<rect x="184.31" y="223.1" class="st0" width="84.21" height="25.39"/>
<rect x="184.31" y="248.49" class="st0" width="84.21" height="84.83"/>
<line class="st0" x1="227.66" y1="248.8" x2="227.77" y2="333.01"/>
<line class="st0" x1="184.62" y1="290.6" x2="268.84" y2="290.6"/>
<line class="st0" x1="203.2" y1="199.57" x2="166.67" y2="199.57"/>
<line class="st0" x1="286.79" y1="199.57" x2="250.26" y2="199.57"/>
<path class="st0" d="M312,140.67c0,43.59,16.57,54.2,37,54.2c20.43,0,37-10.6,37-54.2S369.43,37,349,37
	C328.56,37,312,97.08,312,140.67z"/>
<line class="st0" x1="368.84" y1="107.11" x2="349" y2="115.93"/>
<line class="st0" x1="368.84" y1="143.94" x2="349" y2="152.76"/>
<line class="st0" x1="349.02" y1="80.99" x2="349.02" y2="337.97"/>
<line class="st0" x1="329.16" y1="107.11" x2="349" y2="115.93"/>
<line class="st0" x1="329.16" y1="143.94" x2="349" y2="152.76"/>
<g>
	<path class="st0" d="M216.2,87.38c-20.1-18.16-46.54-29.5-75.75-30.23C75.59,55.51,21.68,106.76,20.04,171.63
		c-1.55,61.53,44.48,113.19,104.58,119.74"/>
</g>
</svg>
