<?xml version="1.0" encoding="utf-8"?>
<!-- Generator: Adobe Illustrator 28.3.0, SVG Export Plug-In . SVG Version: 6.00 Build 0)  -->
<svg version="1.1" id="Capa_1" xmlns="http://www.w3.org/2000/svg" xmlns:xlink="http://www.w3.org/1999/xlink" x="0px" y="0px"
	 viewBox="0 0 176 207" style="enable-background:new 0 0 176 207;" xml:space="preserve">
<style type="text/css">
	.st0{fill:none;stroke:#FCFBEA;stroke-width:4;stroke-miterlimit:10;}
	.st1{fill:#FCFBEA;}
	.st2{font-family:'Guttie-Regular';}
	.st3{font-size:33.4191px;}
	.st4{letter-spacing:-1.02;}
	.st5{letter-spacing:-2.04;}
</style>
<g>
	<g>
		<path class="st0" d="M142.12,130.3l-87.07,0.41c-3.31,0.02-5.53-3.38-4.21-6.4l43.46-99.24c0.81-1.84,3.41-1.85,4.24-0.02
			l45.69,101.99C144.9,128.57,143.79,130.29,142.12,130.3z"/>
		<line class="st0" x1="88.07" y1="39.22" x2="104.85" y2="39.22"/>
		<line class="st0" x1="78.9" y1="60.03" x2="114.25" y2="60.03"/>
		<line class="st0" x1="61.22" y1="117.76" x2="131.93" y2="117.76"/>
		<rect x="81.25" y="77.93" class="st0" width="30.43" height="9.17"/>
		<rect x="81.25" y="87.1" class="st0" width="30.43" height="30.65"/>
		<line class="st0" x1="96.91" y1="87.22" x2="96.95" y2="117.64"/>
		<line class="st0" x1="81.36" y1="102.32" x2="111.79" y2="102.32"/>
		<line class="st0" x1="88.07" y1="69.43" x2="74.87" y2="69.43"/>
		<line class="st0" x1="118.28" y1="69.43" x2="105.08" y2="69.43"/>
		<path class="st0" d="M127.38,48.14c0,15.75,5.99,19.58,13.37,19.58c7.38,0,13.37-3.83,13.37-19.58s-5.99-37.46-13.37-37.46
			C133.37,10.68,127.38,32.39,127.38,48.14z"/>
		<line class="st0" x1="147.92" y1="36.02" x2="140.75" y2="39.21"/>
		<line class="st0" x1="147.92" y1="49.32" x2="140.75" y2="52.51"/>
		<line class="st0" x1="140.76" y1="26.58" x2="140.76" y2="119.43"/>
		<line class="st0" x1="133.59" y1="36.02" x2="140.75" y2="39.21"/>
		<line class="st0" x1="133.59" y1="49.32" x2="140.75" y2="52.51"/>
		<g>
			<path class="st0" d="M92.77,28.89c-7.26-6.56-16.82-10.66-27.37-10.92c-23.44-0.59-42.92,17.93-43.51,41.37
				c-0.56,22.23,16.07,40.9,37.79,43.27"/>
		</g>
		<g>
			<text transform="matrix(0.9814 0 0 1 48.4424 159.1541)"><tspan x="0" y="0" class="st1 st2 st3">R</tspan><tspan x="22.59" y="0" class="st1 st2 st3">U</tspan><tspan x="45.72" y="0" class="st1 st2 st3 st4">R</tspan><tspan x="66.27" y="0" class="st1 st2 st3 st5">AL</tspan></text>
			<text transform="matrix(0.9814 0 0 1 50.041 187.6873)" class="st1 st2 st3 st5">HOUSE</text>
		</g>
	</g>
</g>
</svg>
