<?xml version="1.0" encoding="utf-8"?>
<!-- Generator: Adobe Illustrator 28.3.0, SVG Export Plug-In . SVG Version: 6.00 Build 0)  -->
<svg version="1.1" id="Capa_1" xmlns="http://www.w3.org/2000/svg" xmlns:xlink="http://www.w3.org/1999/xlink" x="0px" y="0px"
	 viewBox="0 0 412 419" style="enable-background:new 0 0 412 419;" xml:space="preserve">
<style type="text/css">
	.st0{fill:#00AB87;}
	.st1{fill:#FCFBEA;stroke:#00AB87;stroke-width:5;stroke-miterlimit:10;}
	.st2{fill:#FCFBEA;stroke:#00AB87;stroke-width:5;stroke-linecap:round;stroke-miterlimit:10;}
	.st3{font-family:'Guttie-Regular';}
	.st4{font-size:74px;}
	.st5{letter-spacing:1.02;}
	.st6{letter-spacing:-3.06;}
	.st7{letter-spacing:-5.09;}
	.st8{letter-spacing:-4.08;}
</style>
<g>
	<circle class="st0" cx="154.61" cy="127" r="94"/>
	<g>
		<path class="st1" d="M332.68,282.5l-216.24,1.02L223.55,38.9L332.68,282.5z"/>
		<line class="st1" x1="205.61" y1="80.5" x2="242.61" y2="80.5"/>
		<line class="st1" x1="184.61" y1="126.5" x2="262.61" y2="126.5"/>
		<line class="st1" x1="145.61" y1="254.5" x2="302.61" y2="254.5"/>
		<rect x="190.11" y="166.5" class="st1" width="67" height="20"/>
		<rect x="190.11" y="186.5" class="st1" width="67" height="68"/>
		<line class="st1" x1="225.11" y1="187" x2="225.2" y2="254"/>
		<line class="st1" x1="190.61" y1="220.5" x2="257.61" y2="220.5"/>
		<line class="st1" x1="205.61" y1="147.5" x2="175.61" y2="147.5"/>
		<line class="st1" x1="271.61" y1="147.5" x2="242.61" y2="147.5"/>
	</g>
	<path class="st1" d="M292.18,100.3c0,34.88,13.25,43.36,29.6,43.36c16.35,0,29.6-8.48,29.6-43.36s-13.25-82.95-29.6-82.95
		C305.43,17.35,292.18,65.42,292.18,100.3z"/>
	<line class="st2" x1="337.66" y1="73.45" x2="321.78" y2="80.51"/>
	<line class="st2" x1="337.66" y1="102.91" x2="321.78" y2="109.97"/>
	<line class="st2" x1="322.11" y1="52.5" x2="322.11" y2="258.5"/>
	<line class="st2" x1="305.91" y1="73.45" x2="321.78" y2="80.51"/>
	<line class="st2" x1="305.91" y1="102.91" x2="321.78" y2="109.97"/>
	<g>
		<text transform="matrix(0.9814 0 0 1 111.6552 343.1974)"><tspan x="0" y="0" class="st0 st3 st4 st5">R</tspan><tspan x="50.02" y="0" class="st0 st3 st4">U</tspan><tspan x="101.23" y="0" class="st0 st3 st4 st6">R</tspan><tspan x="146.74" y="0" class="st0 st3 st4 st7">AL</tspan></text>
		<text transform="matrix(0.9814 0 0 1 115.196 406.3785)" class="st0 st3 st4 st8">HOUSE</text>
	</g>
</g>
</svg>
