<?xml version="1.0" encoding="utf-8"?>
<!-- Generator: Adobe Illustrator 28.3.0, SVG Export Plug-In . SVG Version: 6.00 Build 0)  -->
<svg version="1.1" id="Capa_1" xmlns="http://www.w3.org/2000/svg" xmlns:xlink="http://www.w3.org/1999/xlink" x="0px" y="0px"
	 viewBox="0 0 412 419" style="enable-background:new 0 0 412 419;" xml:space="preserve">
<g>
	<g>
		<path d="M38.72,178.13v35.06H21.64v-89.41h32.92c4.12,0,8,0.65,11.63,1.96c3.63,1.3,6.81,3.11,9.53,5.42
			c2.72,2.31,4.87,5.11,6.44,8.39c1.57,3.28,2.35,6.89,2.35,10.85c0,4.12-0.79,7.63-2.35,10.53c-1.57,2.9-3.61,5.36-6.13,7.38
			c-2.52,2.02-5.38,3.62-8.6,4.79c-3.22,1.18-6.48,2.1-9.78,2.78l29.08,37.33H65.7L38.72,178.13z M52.34,172.71
			c1.9-0.5,3.79-1.28,5.69-2.33c1.9-1.05,3.61-2.46,5.14-4.22c1.53-1.77,2.76-3.95,3.71-6.56c0.95-2.6,1.42-5.67,1.42-9.2
			c0-3.61-0.48-6.79-1.42-9.52c-0.95-2.73-2.21-5-3.77-6.81c-1.57-1.81-3.28-3.17-5.14-4.1c-1.86-0.92-3.73-1.39-5.63-1.39H38.72
			v47.54L52.34,172.71z"/>
		<path d="M140.21,215.08c-4.46,0-8.81-0.69-13.06-2.08c-4.25-1.39-8.02-3.45-11.32-6.18c-3.3-2.73-5.96-6.12-7.98-10.15
			c-2.02-4.04-3.03-8.7-3.03-14v-58.89h17.08v58.51c0,19.93,6.11,29.89,18.32,29.89c3.13,0,6.1-0.48,8.91-1.45
			c2.8-0.97,5.3-2.61,7.49-4.92c2.19-2.31,3.92-5.38,5.2-9.2c1.28-3.82,1.92-8.6,1.92-14.31v-58.51h4.33v58.89
			c0,10.59-2.39,18.64-7.18,24.15C156.09,212.33,149.2,215.08,140.21,215.08z"/>
		<path d="M208.03,178.13v35.06h-17.08v-89.41h32.92c4.12,0,8,0.65,11.63,1.96c3.63,1.3,6.81,3.11,9.53,5.42
			c2.72,2.31,4.87,5.11,6.44,8.39c1.57,3.28,2.35,6.89,2.35,10.85c0,4.12-0.79,7.63-2.35,10.53c-1.57,2.9-3.61,5.36-6.13,7.38
			c-2.52,2.02-5.38,3.62-8.6,4.79c-3.22,1.18-6.48,2.1-9.78,2.78l29.08,37.33h-21.04L208.03,178.13z M221.64,172.71
			c1.9-0.5,3.79-1.28,5.69-2.33c1.9-1.05,3.61-2.46,5.14-4.22c1.53-1.77,2.76-3.95,3.71-6.56c0.95-2.6,1.42-5.67,1.42-9.2
			c0-3.61-0.48-6.79-1.42-9.52c-0.95-2.73-2.21-5-3.77-6.81c-1.57-1.81-3.28-3.17-5.14-4.1c-1.86-0.92-3.73-1.39-5.63-1.39h-13.61
			v47.54L221.64,172.71z"/>
		<path d="M308.89,188.09h-35.4l-9.65,25.22h-4.7l29.58-78.19l0.12-0.38l-4.08-10.97h20.17l33.05,89.54H318.3L308.89,188.09z
			 M307.41,184.31l-16.09-43l-16.46,43H307.41z"/>
		<path d="M341.32,213.19v-89.41h17.08v84.24l36.26-8.83l-3.71,14H341.32z"/>
	</g>
	<g>
		<path d="M76.19,320.86v-44.52h-34.9v44.52H24.21v-89.41h17.08v41.11h34.9v-41.11h17.08v89.41H76.19z"/>
		<path d="M97.6,276.09c0-7.48,1.26-14.1,3.78-19.86c2.51-5.76,5.84-10.61,9.96-14.57c4.13-3.95,8.83-6.96,14.11-9.02
			c5.28-2.06,10.68-3.09,16.21-3.09c5.53,0,10.93,1.03,16.21,3.09c5.28,2.06,9.98,5.07,14.11,9.02c4.13,3.95,7.45,8.81,9.96,14.57
			c2.52,5.76,3.77,12.38,3.77,19.86s-1.26,14.12-3.77,19.92c-2.52,5.8-5.84,10.68-9.96,14.63c-4.13,3.95-8.83,6.96-14.11,9.02
			c-5.28,2.06-10.69,3.09-16.21,3.09c-5.53,0-10.93-1.03-16.21-3.09c-5.28-2.06-9.98-5.06-14.11-9.02
			c-4.13-3.95-7.45-8.83-9.96-14.63C98.86,290.21,97.6,283.57,97.6,276.09z M118.02,285.55c2.06,5.38,4.37,10.36,6.93,14.94
			c2.56,4.58,5.42,8.32,8.6,11.22c3.18,2.9,6.68,4.79,10.52,5.67c3.84,0.88,8.11,0.4,12.81-1.45c4.7-1.85,8.17-4.43,10.4-7.76
			c2.23-3.32,3.55-7.17,3.96-11.54c0.41-4.37,0.06-9.12-1.05-14.25c-1.11-5.13-2.74-10.38-4.89-15.76
			c-2.06-5.46-4.37-10.44-6.93-14.94c-2.56-4.5-5.43-8.18-8.6-11.04c-3.18-2.86-6.68-4.73-10.52-5.61
			c-3.84-0.88-8.11-0.4-12.81,1.45c-4.7,1.85-8.17,4.44-10.4,7.76c-2.23,3.32-3.55,7.15-3.96,11.48c-0.41,4.33-0.04,9.02,1.12,14.06
			C114.35,274.83,115.96,280.08,118.02,285.55z"/>
		<path d="M228.42,322.75c-4.46,0-8.81-0.69-13.06-2.08c-4.25-1.39-8.02-3.44-11.32-6.18c-3.3-2.73-5.96-6.12-7.98-10.15
			c-2.02-4.03-3.03-8.7-3.03-14v-58.89h17.08v58.51c0,19.92,6.11,29.89,18.32,29.89c3.13,0,6.1-0.48,8.91-1.45
			c2.8-0.97,5.3-2.6,7.49-4.92c2.19-2.31,3.92-5.38,5.2-9.21c1.28-3.82,1.92-8.59,1.92-14.31v-58.51h4.33v58.89
			c0,10.59-2.39,18.64-7.18,24.15C244.3,320,237.41,322.75,228.42,322.75z"/>
		<path d="M313.69,259.57c0.91-3.03,1.38-6.12,1.42-9.27c0.04-3.15-0.5-5.99-1.61-8.51c-1.11-2.52-2.85-4.6-5.2-6.24
			c-2.35-1.64-5.47-2.46-9.34-2.46c-2.72,0-5.18,0.46-7.36,1.39c-2.19,0.93-4.07,2.15-5.63,3.66c-1.57,1.51-2.76,3.26-3.59,5.23
			c-0.83,1.98-1.24,4.06-1.24,6.24c0,2.02,0.37,3.78,1.11,5.3c0.74,1.51,1.77,2.9,3.09,4.16c1.32,1.26,2.87,2.42,4.64,3.47
			c1.77,1.05,3.69,2.08,5.75,3.09c4.78,2.44,9.43,4.75,13.92,6.94c4.49,2.19,8.48,4.54,11.94,7.06c3.46,2.52,6.25,5.36,8.35,8.51
			c2.1,3.15,3.16,6.87,3.16,11.16c0,2.35-0.49,4.86-1.48,7.5c-0.99,2.65-2.74,5.11-5.26,7.38c-2.52,2.27-5.88,4.16-10.09,5.67
			c-4.21,1.51-9.53,2.27-15.96,2.27c-6.52,0-11.86-0.8-16.03-2.4c-4.17-1.6-7.49-3.66-9.96-6.18c-2.48-2.52-4.27-5.38-5.38-8.58
			c-1.11-3.19-1.88-6.39-2.29-9.58l15.72-7.57c-0.41,3.53-0.52,7.1-0.31,10.72c0.2,3.61,0.95,6.89,2.23,9.84
			c1.28,2.94,3.22,5.36,5.82,7.25c2.6,1.89,6.04,2.84,10.33,2.84c3.63,0,6.6-0.61,8.91-1.83c2.31-1.22,4.1-2.65,5.38-4.29
			c1.28-1.64,2.17-3.26,2.66-4.85c0.49-1.6,0.74-2.77,0.74-3.53c0-3.61-1.1-6.58-3.28-8.89c-2.19-2.31-4.91-4.29-8.17-5.93
			c-3.26-1.64-6.74-3.13-10.46-4.48c-3.71-1.34-7.05-2.82-10.03-4.41c-2.31-1.26-4.6-2.71-6.87-4.35c-2.27-1.64-4.27-3.49-6-5.55
			c-1.73-2.06-3.14-4.39-4.21-7c-1.07-2.6-1.61-5.51-1.61-8.7c0-3.7,0.58-6.89,1.73-9.58c1.15-2.69,2.64-4.96,4.46-6.81
			c1.81-1.85,3.9-3.36,6.25-4.54c2.35-1.18,4.7-2.1,7.05-2.77c2.35-0.67,4.64-1.11,6.87-1.32c2.23-0.21,4.12-0.31,5.69-0.31
			c6.35,0,11.4,0.86,15.16,2.58c3.75,1.72,6.7,3.87,8.85,6.43c2.15,2.56,3.65,5.32,4.52,8.26c0.87,2.94,1.55,5.63,2.04,8.07
			L313.69,259.57z"/>
		<path d="M341.66,320.86v-89.41h49.63l3.71,14l-36.26-8.83v36.57h26.24v3.78h-26.24v38.71l36.26-8.83l-3.71,14H341.66z"/>
	</g>
</g>
</svg>
